<?xml version="1.0" standalone="no"?><!DOCTYPE svg PUBLIC "-//W3C//DTD SVG 1.1//EN" "http://www.w3.org/Graphics/SVG/1.1/DTD/svg11.dtd"><svg t="1528515155696" class="icon" style="" viewBox="0 0 1024 1024" version="1.1" xmlns="http://www.w3.org/2000/svg" p-id="6701" xmlns:xlink="http://www.w3.org/1999/xlink" width="512" height="512"><defs><style type="text/css"></style></defs><path d="M874.1 377.9c33 0 60-27 60-60s-27-60-60-60-60 27-60 60 27 60 60 60z" fill="#a54b48" p-id="6702"></path><path d="M870.5 312m-60 0a60 60 0 1 0 120 0 60 60 0 1 0-120 0Z" fill="#a54b48" p-id="6703"></path><path d="M866.9 306m-60 0a60 60 0 1 0 120 0 60 60 0 1 0-120 0Z" fill="#a54b48" p-id="6704"></path><path d="M863.1 300m-60 0a60 60 0 1 0 120 0 60 60 0 1 0-120 0Z" fill="#a54b48" p-id="6705"></path><path d="M859.2 294.1m-60 0a60 60 0 1 0 120 0 60 60 0 1 0-120 0Z" fill="#a54b48" p-id="6706"></path><path d="M855.1 288.3m-60 0a60 60 0 1 0 120 0 60 60 0 1 0-120 0Z" fill="#a54b48" p-id="6707"></path><path d="M851 282.6m-60 0a60 60 0 1 0 120 0 60 60 0 1 0-120 0Z" fill="#a54b48" p-id="6708"></path><path d="M846.8 276.9m-60 0a60 60 0 1 0 120 0 60 60 0 1 0-120 0Z" fill="#a54b48" p-id="6709"></path><path d="M842.4 271.3m-60 0a60 60 0 1 0 120 0 60 60 0 1 0-120 0Z" fill="#a54b48" p-id="6710"></path><path d="M838 265.8m-60 0a60 60 0 1 0 120 0 60 60 0 1 0-120 0Z" fill="#a54b48" p-id="6711"></path><path d="M833.5 260.4m-60 0a60 60 0 1 0 120 0 60 60 0 1 0-120 0Z" fill="#a54b48" p-id="6712"></path><path d="M828.9 255.1m-60 0a60 60 0 1 0 120 0 60 60 0 1 0-120 0Z" fill="#a54b48" p-id="6713"></path><path d="M824.1 249.8m-60 0a60 60 0 1 0 120 0 60 60 0 1 0-120 0Z" fill="#a54b48" p-id="6714"></path><path d="M819.3 244.6m-60 0a60 60 0 1 0 120 0 60 60 0 1 0-120 0Z" fill="#a54b48" p-id="6715"></path><path d="M814.4 239.6m-60 0a60 60 0 1 0 120 0 60 60 0 1 0-120 0Z" fill="#a54b48" p-id="6716"></path><path d="M809.4 234.6m-60 0a60 60 0 1 0 120 0 60 60 0 1 0-120 0Z" fill="#a54b48" p-id="6717"></path><path d="M804.3 229.7m-60 0a60 60 0 1 0 120 0 60 60 0 1 0-120 0Z" fill="#a54b48" p-id="6718"></path><path d="M799.1 224.9m-60 0a60 60 0 1 0 120 0 60 60 0 1 0-120 0Z" fill="#a54b48" p-id="6719"></path><path d="M793.9 220.2m-60 0a60 60 0 1 0 120 0 60 60 0 1 0-120 0Z" fill="#a54b48" p-id="6720"></path><path d="M788.5 215.6m-60 0a60 60 0 1 0 120 0 60 60 0 1 0-120 0Z" fill="#a54b48" p-id="6721"></path><path d="M783.1 211m-60 0a60 60 0 1 0 120 0 60 60 0 1 0-120 0Z" fill="#a54b48" p-id="6722"></path><path d="M777.5 206.7m-60 0a60 60 0 1 0 120 0 60 60 0 1 0-120 0Z" fill="#a54b48" p-id="6723"></path><path d="M771.9 202.3m-60 0a60 60 0 1 0 120 0 60 60 0 1 0-120 0Z" fill="#a54b48" p-id="6724"></path><path d="M766.3 198.1m-60 0a60 60 0 1 0 120 0 60 60 0 1 0-120 0Z" fill="#a54b48" p-id="6725"></path><path d="M760.5 194m-60 0a60 60 0 1 0 120 0 60 60 0 1 0-120 0Z" fill="#a54b48" p-id="6726"></path><path d="M754.7 190m-60 0a60 60 0 1 0 120 0 60 60 0 1 0-120 0Z" fill="#a54b48" p-id="6727"></path><path d="M748.8 186.2m-60 0a60 60 0 1 0 120 0 60 60 0 1 0-120 0Z" fill="#a54b48" p-id="6728"></path><path d="M742.8 182.3m-60 0a60 60 0 1 0 120 0 60 60 0 1 0-120 0Z" fill="#a54b48" p-id="6729"></path><path d="M736.8 178.7m-60 0a60 60 0 1 0 120 0 60 60 0 1 0-120 0Z" fill="#a54b48" p-id="6730"></path><path d="M730.7 175.1m-60 0a60 60 0 1 0 120 0 60 60 0 1 0-120 0Z" fill="#a54b48" p-id="6731"></path><path d="M724.5 171.7m-60 0a60 60 0 1 0 120 0 60 60 0 1 0-120 0Z" fill="#a54b48" p-id="6732"></path><path d="M718.3 168.3m-60 0a60 60 0 1 0 120 0 60 60 0 1 0-120 0Z" fill="#a54b48" p-id="6733"></path><path d="M712 165.1m-60 0a60 60 0 1 0 120 0 60 60 0 1 0-120 0Z" fill="#a54b48" p-id="6734"></path><path d="M705.7 162m-60 0a60 60 0 1 0 120 0 60 60 0 1 0-120 0Z" fill="#a54b48" p-id="6735"></path><path d="M699.3 159m-60 0a60 60 0 1 0 120 0 60 60 0 1 0-120 0Z" fill="#a54b48" p-id="6736"></path><path d="M692.8 156.1m-60 0a60 60 0 1 0 120 0 60 60 0 1 0-120 0Z" fill="#a54b48" p-id="6737"></path><path d="M686.3 153.3m-60 0a60 60 0 1 0 120 0 60 60 0 1 0-120 0Z" fill="#a54b48" p-id="6738"></path><path d="M679.8 150.7m-60 0a60 60 0 1 0 120 0 60 60 0 1 0-120 0Z" fill="#a54b48" p-id="6739"></path><path d="M673.2 148.2m-60 0a60 60 0 1 0 120 0 60 60 0 1 0-120 0Z" fill="#a54b48" p-id="6740"></path><path d="M666.5 145.8m-60 0a60 60 0 1 0 120 0 60 60 0 1 0-120 0Z" fill="#a54b48" p-id="6741"></path><path d="M659.8 143.5m-60 0a60 60 0 1 0 120 0 60 60 0 1 0-120 0Z" fill="#a54b48" p-id="6742"></path><path d="M653.1 141.3m-60 0a60 60 0 1 0 120 0 60 60 0 1 0-120 0Z" fill="#a54b48" p-id="6743"></path><path d="M646.3 139.3m-60 0a60 60 0 1 0 120 0 60 60 0 1 0-120 0Z" fill="#a54b48" p-id="6744"></path><path d="M639.5 137.4m-60 0a60 60 0 1 0 120 0 60 60 0 1 0-120 0Z" fill="#a54b48" p-id="6745"></path><path d="M632.7 135.6m-60 0a60 60 0 1 0 120 0 60 60 0 1 0-120 0Z" fill="#a54b48" p-id="6746"></path><path d="M625.8 133.9m-60 0a60 60 0 1 0 120 0 60 60 0 1 0-120 0Z" fill="#a54b48" p-id="6747"></path><path d="M618.9 132.4m-60 0a60 60 0 1 0 120 0 60 60 0 1 0-120 0Z" fill="#a54b48" p-id="6748"></path><path d="M612 131m-60 0a60 60 0 1 0 120 0 60 60 0 1 0-120 0Z" fill="#a54b48" p-id="6749"></path><path d="M605.1 129.7m-60 0a60 60 0 1 0 120 0 60 60 0 1 0-120 0Z" fill="#a54b48" p-id="6750"></path><path d="M598.1 128.6m-60 0a60 60 0 1 0 120 0 60 60 0 1 0-120 0Z" fill="#a54b48" p-id="6751"></path><path d="M591.1 127.5m-60 0a60 60 0 1 0 120 0 60 60 0 1 0-120 0Z" fill="#a54b48" p-id="6752"></path><path d="M584.1 126.7m-60 0a60 60 0 1 0 120 0 60 60 0 1 0-120 0Z" fill="#a54b48" p-id="6753"></path><path d="M577.1 125.8m-60 0a60 60 0 1 0 120 0 60 60 0 1 0-120 0Z" fill="#a54b48" p-id="6754"></path><path d="M570 125.2m-60 0a60 60 0 1 0 120 0 60 60 0 1 0-120 0Z" fill="#a54b48" p-id="6755"></path><path d="M563 124.7m-60 0a60 60 0 1 0 120 0 60 60 0 1 0-120 0Z" fill="#a54b48" p-id="6756"></path><path d="M555.9 124.3m-60 0a60 60 0 1 0 120 0 60 60 0 1 0-120 0Z" fill="#a54b48" p-id="6757"></path><path d="M548.9 124m-60 0a60 60 0 1 0 120 0 60 60 0 1 0-120 0Z" fill="#a54b48" p-id="6758"></path><path d="M541.8 123.9m-60 0a60 60 0 1 0 120 0 60 60 0 1 0-120 0Z" fill="#a54b48" p-id="6759"></path><path d="M534.7 123.9m-60 0a60 60 0 1 0 120 0 60 60 0 1 0-120 0Z" fill="#a54b48" p-id="6760"></path><path d="M527.7 124.1m-60 0a60 60 0 1 0 120 0 60 60 0 1 0-120 0Z" fill="#a54b48" p-id="6761"></path><path d="M520.6 124.3m-60 0a60 60 0 1 0 120 0 60 60 0 1 0-120 0Z" fill="#a54b48" p-id="6762"></path><path d="M513.6 124.7m-60 0a60 60 0 1 0 120 0 60 60 0 1 0-120 0Z" fill="#a54b48" p-id="6763"></path><path d="M506.5 125.2m-60 0a60 60 0 1 0 120 0 60 60 0 1 0-120 0Z" fill="#a54b48" p-id="6764"></path><path d="M499.5 125.8m-60 0a60 60 0 1 0 120 0 60 60 0 1 0-120 0Z" fill="#a54b48" p-id="6765"></path><path d="M492.5 126.6m-60 0a60 60 0 1 0 120 0 60 60 0 1 0-120 0Z" fill="#a54b48" p-id="6766"></path><path d="M485.4 127.5m-60 0a60 60 0 1 0 120 0 60 60 0 1 0-120 0Z" fill="#a54b48" p-id="6767"></path><path d="M478.4 128.4m-60 0a60 60 0 1 0 120 0 60 60 0 1 0-120 0Z" fill="#a54b48" p-id="6768"></path><path d="M471.5 129.6m-60 0a60 60 0 1 0 120 0 60 60 0 1 0-120 0Z" fill="#a54b48" p-id="6769"></path><path d="M464.5 130.9m-60 0a60 60 0 1 0 120 0 60 60 0 1 0-120 0Z" fill="#a54b48" p-id="6770"></path><path d="M457.6 132.2m-60 0a60 60 0 1 0 120 0 60 60 0 1 0-120 0Z" fill="#a54b48" p-id="6771"></path><path d="M450.7 133.8m-60 0a60 60 0 1 0 120 0 60 60 0 1 0-120 0Z" fill="#a54b48" p-id="6772"></path><path d="M443.8 135.4m-60 0a60 60 0 1 0 120 0 60 60 0 1 0-120 0Z" fill="#a54b48" p-id="6773"></path><path d="M437 137.2m-60 0a60 60 0 1 0 120 0 60 60 0 1 0-120 0Z" fill="#a54b48" p-id="6774"></path><path d="M430.2 139.1m-60 0a60 60 0 1 0 120 0 60 60 0 1 0-120 0Z" fill="#a54b48" p-id="6775"></path><path d="M423.4 141.1m-60 0a60 60 0 1 0 120 0 60 60 0 1 0-120 0Z" fill="#a54b48" p-id="6776"></path><path d="M416.7 143.3m-60 0a60 60 0 1 0 120 0 60 60 0 1 0-120 0Z" fill="#a54b48" p-id="6777"></path><path d="M410 145.6m-60 0a60 60 0 1 0 120 0 60 60 0 1 0-120 0Z" fill="#a54b48" p-id="6778"></path><path d="M403.3 147.9m-60 0a60 60 0 1 0 120 0 60 60 0 1 0-120 0Z" fill="#a54b48" p-id="6779"></path><path d="M396.8 150.5m-60 0a60 60 0 1 0 120 0 60 60 0 1 0-120 0Z" fill="#a54b48" p-id="6780"></path><path d="M390.2 153.1m-60 0a60 60 0 1 0 120 0 60 60 0 1 0-120 0Z" fill="#a54b48" p-id="6781"></path><path d="M383.7 155.8m-60 0a60 60 0 1 0 120 0 60 60 0 1 0-120 0Z" fill="#a54b48" p-id="6782"></path><path d="M377.2 158.7m-60 0a60 60 0 1 0 120 0 60 60 0 1 0-120 0Z" fill="#a54b48" p-id="6783"></path><path d="M370.8 161.6m-60 0a60 60 0 1 0 120 0 60 60 0 1 0-120 0Z" fill="#a54b48" p-id="6784"></path><path d="M364.5 164.8m-60 0a60 60 0 1 0 120 0 60 60 0 1 0-120 0Z" fill="#a54b48" p-id="6785"></path><path d="M358.2 168m-60 0a60 60 0 1 0 120 0 60 60 0 1 0-120 0Z" fill="#a54b48" p-id="6786"></path><path d="M351.9 171.3m-60 0a60 60 0 1 0 120 0 60 60 0 1 0-120 0Z" fill="#a54b48" p-id="6787"></path><path d="M345.8 174.8m-60 0a60 60 0 1 0 120 0 60 60 0 1 0-120 0Z" fill="#a54b48" p-id="6788"></path><path d="M339.7 178.3m-60 0a60 60 0 1 0 120 0 60 60 0 1 0-120 0Z" fill="#a54b48" p-id="6789"></path><path d="M333.6 182m-60 0a60 60 0 1 0 120 0 60 60 0 1 0-120 0Z" fill="#a54b48" p-id="6790"></path><path d="M327.7 185.8m-60 0a60 60 0 1 0 120 0 60 60 0 1 0-120 0Z" fill="#a54b48" p-id="6791"></path><path d="M321.8 189.6m-60 0a60 60 0 1 0 120 0 60 60 0 1 0-120 0Z" fill="#a54b48" p-id="6792"></path><path d="M316 193.7m-60 0a60 60 0 1 0 120 0 60 60 0 1 0-120 0Z" fill="#a54b48" p-id="6793"></path><path d="M310.2 197.8m-60 0a60 60 0 1 0 120 0 60 60 0 1 0-120 0Z" fill="#a54b48" p-id="6794"></path><path d="M304.5 201.9m-60 0a60 60 0 1 0 120 0 60 60 0 1 0-120 0Z" fill="#a54b48" p-id="6795"></path><path d="M298.9 206.3m-60 0a60 60 0 1 0 120 0 60 60 0 1 0-120 0Z" fill="#a54b48" p-id="6796"></path><path d="M293.4 210.7m-60 0a60 60 0 1 0 120 0 60 60 0 1 0-120 0Z" fill="#a54b48" p-id="6797"></path><path d="M288 215.2m-60 0a60 60 0 1 0 120 0 60 60 0 1 0-120 0Z" fill="#a54b48" p-id="6798"></path><path d="M282.6 219.8m-60 0a60 60 0 1 0 120 0 60 60 0 1 0-120 0Z" fill="#a54b48" p-id="6799"></path><path d="M277.3 224.4m-60 0a60 60 0 1 0 120 0 60 60 0 1 0-120 0Z" fill="#a54b48" p-id="6800"></path><path d="M272.1 229.3m-60 0a60 60 0 1 0 120 0 60 60 0 1 0-120 0Z" fill="#a54b48" p-id="6801"></path><path d="M267 234.2m-60 0a60 60 0 1 0 120 0 60 60 0 1 0-120 0Z" fill="#a54b48" p-id="6802"></path><path d="M262 299.1c33 0 60-27 60-60s-27-60-60-60-60 27-60 60c0 33.1 26.9 60 60 60z" fill="#a54b48" p-id="6803"></path><path d="M253 248.6m-60 0a60 60 0 1 0 120 0 60 60 0 1 0-120 0Z" fill="#a54b48" p-id="6804"></path><path d="M244.3 258.3m-60 0a60 60 0 1 0 120 0 60 60 0 1 0-120 0Z" fill="#a54b48" p-id="6805"></path><path d="M235.9 268.3m-60 0a60 60 0 1 0 120 0 60 60 0 1 0-120 0Z" fill="#a54b48" p-id="6806"></path><path d="M227.9 278.6m-60 0a60 60 0 1 0 120 0 60 60 0 1 0-120 0Z" fill="#a54b48" p-id="6807"></path><path d="M220.2 289.2m-60 0a60 60 0 1 0 120 0 60 60 0 1 0-120 0Z" fill="#a54b48" p-id="6808"></path><path d="M212.9 300m-60 0a60 60 0 1 0 120 0 60 60 0 1 0-120 0Z" fill="#a54b48" p-id="6809"></path><path d="M205.9 311m-60 0a60 60 0 1 0 120 0 60 60 0 1 0-120 0Z" fill="#a54b48" p-id="6810"></path><path d="M199.4 322.3m-60 0a60 60 0 1 0 120 0 60 60 0 1 0-120 0Z" fill="#a54b48" p-id="6811"></path><path d="M193.2 333.8m-60 0a60 60 0 1 0 120 0 60 60 0 1 0-120 0Z" fill="#a54b48" p-id="6812"></path><path d="M187.3 345.5m-60 0a60 60 0 1 0 120 0 60 60 0 1 0-120 0Z" fill="#a54b48" p-id="6813"></path><path d="M181.9 357.4m-60 0a60 60 0 1 0 120 0 60 60 0 1 0-120 0Z" fill="#a54b48" p-id="6814"></path><path d="M177 369.5m-60 0a60 60 0 1 0 120 0 60 60 0 1 0-120 0Z" fill="#a54b48" p-id="6815"></path><path d="M172.3 381.7m-60 0a60 60 0 1 0 120 0 60 60 0 1 0-120 0Z" fill="#a54b48" p-id="6816"></path><path d="M168.1 394m-60 0a60 60 0 1 0 120 0 60 60 0 1 0-120 0Z" fill="#a54b48" p-id="6817"></path><path d="M164.5 406.6m-60 0a60 60 0 1 0 120 0 60 60 0 1 0-120 0Z" fill="#a54b48" p-id="6818"></path><path d="M161.1 419.2m-60 0a60 60 0 1 0 120 0 60 60 0 1 0-120 0Z" fill="#a54b48" p-id="6819"></path><path d="M158.2 431.9m-60 0a60 60 0 1 0 120 0 60 60 0 1 0-120 0Z" fill="#a54b48" p-id="6820"></path><path d="M155.8 444.7m-60 0a60 60 0 1 0 120 0 60 60 0 1 0-120 0Z" fill="#a54b48" p-id="6821"></path><path d="M153.7 457.6m-60 0a60 60 0 1 0 120 0 60 60 0 1 0-120 0Z" fill="#a54b48" p-id="6822"></path><path d="M152.1 470.6m-60 0a60 60 0 1 0 120 0 60 60 0 1 0-120 0Z" fill="#a54b48" p-id="6823"></path><path d="M151 483.6m-60 0a60 60 0 1 0 120 0 60 60 0 1 0-120 0Z" fill="#a54b48" p-id="6824"></path><path d="M150.2 496.6m-60 0a60 60 0 1 0 120 0 60 60 0 1 0-120 0Z" fill="#a54b48" p-id="6825"></path><path d="M149.9 509.7m-60 0a60 60 0 1 0 120 0 60 60 0 1 0-120 0Z" fill="#a54b48" p-id="6826"></path><path d="M150.1 522.7m-60 0a60 60 0 1 0 120 0 60 60 0 1 0-120 0Z" fill="#a54b48" p-id="6827"></path><path d="M150.6 535.8m-60 0a60 60 0 1 0 120 0 60 60 0 1 0-120 0Z" fill="#a54b48" p-id="6828"></path><path d="M151.6 548.8m-60 0a60 60 0 1 0 120 0 60 60 0 1 0-120 0Z" fill="#a54b48" p-id="6829"></path><path d="M153.1 561.7m-60 0a60 60 0 1 0 120 0 60 60 0 1 0-120 0Z" fill="#a54b48" p-id="6830"></path><path d="M155 574.7m-60 0a60 60 0 1 0 120 0 60 60 0 1 0-120 0Z" fill="#a54b48" p-id="6831"></path><path d="M157.2 587.5m-60 0a60 60 0 1 0 120 0 60 60 0 1 0-120 0Z" fill="#a54b48" p-id="6832"></path><path d="M160.1 600.3m-60 0a60 60 0 1 0 120 0 60 60 0 1 0-120 0Z" fill="#a54b48" p-id="6833"></path><path d="M163.2 612.9m-60 0a60 60 0 1 0 120 0 60 60 0 1 0-120 0Z" fill="#a54b48" p-id="6834"></path><path d="M166.8 625.5m-60 0a60 60 0 1 0 120 0 60 60 0 1 0-120 0Z" fill="#a54b48" p-id="6835"></path><path d="M170.8 637.9m-60 0a60 60 0 1 0 120 0 60 60 0 1 0-120 0Z" fill="#a54b48" p-id="6836"></path><path d="M175.3 650.2m-60 0a60 60 0 1 0 120 0 60 60 0 1 0-120 0Z" fill="#a54b48" p-id="6837"></path><path d="M180.1 662.3m-60 0a60 60 0 1 0 120 0 60 60 0 1 0-120 0Z" fill="#a54b48" p-id="6838"></path><path d="M185.4 674.2m-60 0a60 60 0 1 0 120 0 60 60 0 1 0-120 0Z" fill="#a54b48" p-id="6839"></path><path d="M191.1 686m-60 0a60 60 0 1 0 120 0 60 60 0 1 0-120 0Z" fill="#a54b48" p-id="6840"></path><path d="M197 697.6m-60 0a60 60 0 1 0 120 0 60 60 0 1 0-120 0Z" fill="#a54b48" p-id="6841"></path><path d="M203.6 708.9m-60 0a60 60 0 1 0 120 0 60 60 0 1 0-120 0Z" fill="#a54b48" p-id="6842"></path><path d="M210.4 720m-60 0a60 60 0 1 0 120 0 60 60 0 1 0-120 0Z" fill="#a54b48" p-id="6843"></path><path d="M217.5 731m-60 0a60 60 0 1 0 120 0 60 60 0 1 0-120 0Z" fill="#a54b48" p-id="6844"></path><path d="M225.1 741.6m-60 0a60 60 0 1 0 120 0 60 60 0 1 0-120 0Z" fill="#a54b48" p-id="6845"></path><path d="M233.1 752m-60 0a60 60 0 1 0 120 0 60 60 0 1 0-120 0Z" fill="#a54b48" p-id="6846"></path><path d="M241.3 762.1m-60 0a60 60 0 1 0 120 0 60 60 0 1 0-120 0Z" fill="#a54b48" p-id="6847"></path><path d="M249.8 772m-60 0a60 60 0 1 0 120 0 60 60 0 1 0-120 0Z" fill="#a54b48" p-id="6848"></path><path d="M258.8 781.5m-60 0a60 60 0 1 0 120 0 60 60 0 1 0-120 0Z" fill="#a54b48" p-id="6849"></path><path d="M268 790.7m-60 0a60 60 0 1 0 120 0 60 60 0 1 0-120 0Z" fill="#a54b48" p-id="6850"></path><path d="M277.5 799.7m-60 0a60 60 0 1 0 120 0 60 60 0 1 0-120 0Z" fill="#a54b48" p-id="6851"></path><path d="M287.3 808.2m-60 0a60 60 0 1 0 120 0 60 60 0 1 0-120 0Z" fill="#a54b48" p-id="6852"></path><path d="M297.5 816.5m-60 0a60 60 0 1 0 120 0 60 60 0 1 0-120 0Z" fill="#a54b48" p-id="6853"></path><path d="M307.8 824.5m-60 0a60 60 0 1 0 120 0 60 60 0 1 0-120 0Z" fill="#a54b48" p-id="6854"></path><path d="M318.4 832m-60 0a60 60 0 1 0 120 0 60 60 0 1 0-120 0Z" fill="#a54b48" p-id="6855"></path><path d="M329.4 839.2m-60 0a60 60 0 1 0 120 0 60 60 0 1 0-120 0Z" fill="#a54b48" p-id="6856"></path><path d="M340.5 846.1m-60 0a60 60 0 1 0 120 0 60 60 0 1 0-120 0Z" fill="#a54b48" p-id="6857"></path><path d="M351.8 852.6m-60 0a60 60 0 1 0 120 0 60 60 0 1 0-120 0Z" fill="#a54b48" p-id="6858"></path><path d="M363.4 858.6m-60 0a60 60 0 1 0 120 0 60 60 0 1 0-120 0Z" fill="#a54b48" p-id="6859"></path><path d="M375.1 864.3m-60 0a60 60 0 1 0 120 0 60 60 0 1 0-120 0Z" fill="#a54b48" p-id="6860"></path><path d="M387 869.7m-60 0a60 60 0 1 0 120 0 60 60 0 1 0-120 0Z" fill="#a54b48" p-id="6861"></path><path d="M399.2 874.4m-60 0a60 60 0 1 0 120 0 60 60 0 1 0-120 0Z" fill="#a54b48" p-id="6862"></path><path d="M411.4 878.9m-60 0a60 60 0 1 0 120 0 60 60 0 1 0-120 0Z" fill="#a54b48" p-id="6863"></path><path d="M423.8 883m-60 0a60 60 0 1 0 120 0 60 60 0 1 0-120 0Z" fill="#a54b48" p-id="6864"></path><path d="M436.4 886.6m-60 0a60 60 0 1 0 120 0 60 60 0 1 0-120 0Z" fill="#a54b48" p-id="6865"></path><path d="M449 889.8m-60 0a60 60 0 1 0 120 0 60 60 0 1 0-120 0Z" fill="#a54b48" p-id="6866"></path><path d="M461.8 892.6m-60 0a60 60 0 1 0 120 0 60 60 0 1 0-120 0Z" fill="#a54b48" p-id="6867"></path><path d="M474.6 894.9m-60 0a60 60 0 1 0 120 0 60 60 0 1 0-120 0Z" fill="#a54b48" p-id="6868"></path><path d="M487.6 896.7m-60 0a60 60 0 1 0 120 0 60 60 0 1 0-120 0Z" fill="#a54b48" p-id="6869"></path><path d="M500.5 898.3m-60 0a60 60 0 1 0 120 0 60 60 0 1 0-120 0Z" fill="#a54b48" p-id="6870"></path><path d="M513.5 899.3m-60 0a60 60 0 1 0 120 0 60 60 0 1 0-120 0Z" fill="#a54b48" p-id="6871"></path><path d="M526.6 899.8m-60 0a60 60 0 1 0 120 0 60 60 0 1 0-120 0Z" fill="#a54b48" p-id="6872"></path><path d="M539.6 900.1m-60 0a60 60 0 1 0 120 0 60 60 0 1 0-120 0Z" fill="#a54b48" p-id="6873"></path><path d="M552.7 899.8m-60 0a60 60 0 1 0 120 0 60 60 0 1 0-120 0Z" fill="#a54b48" p-id="6874"></path><path d="M565.7 899.1m-60 0a60 60 0 1 0 120 0 60 60 0 1 0-120 0Z" fill="#a54b48" p-id="6875"></path><path d="M578.7 897.9m-60 0a60 60 0 1 0 120 0 60 60 0 1 0-120 0Z" fill="#a54b48" p-id="6876"></path><path d="M591.7 896.3m-60 0a60 60 0 1 0 120 0 60 60 0 1 0-120 0Z" fill="#a54b48" p-id="6877"></path><path d="M604.6 894.3m-60 0a60 60 0 1 0 120 0 60 60 0 1 0-120 0Z" fill="#a54b48" p-id="6878"></path><path d="M617.4 891.9m-60 0a60 60 0 1 0 120 0 60 60 0 1 0-120 0Z" fill="#a54b48" p-id="6879"></path><path d="M630.1 889m-60 0a60 60 0 1 0 120 0 60 60 0 1 0-120 0Z" fill="#a54b48" p-id="6880"></path><path d="M642.8 885.7m-60 0a60 60 0 1 0 120 0 60 60 0 1 0-120 0Z" fill="#a54b48" p-id="6881"></path><path d="M655.3 881.9m-60 0a60 60 0 1 0 120 0 60 60 0 1 0-120 0Z" fill="#a54b48" p-id="6882"></path><path d="M667.7 877.8m-60 0a60 60 0 1 0 120 0 60 60 0 1 0-120 0Z" fill="#a54b48" p-id="6883"></path><path d="M679.9 873.2m-60 0a60 60 0 1 0 120 0 60 60 0 1 0-120 0Z" fill="#a54b48" p-id="6884"></path><path d="M691.9 868.2m-60 0a60 60 0 1 0 120 0 60 60 0 1 0-120 0Z" fill="#a54b48" p-id="6885"></path><path d="M703.8 862.8m-60 0a60 60 0 1 0 120 0 60 60 0 1 0-120 0Z" fill="#a54b48" p-id="6886"></path><path d="M715.5 857m-60 0a60 60 0 1 0 120 0 60 60 0 1 0-120 0Z" fill="#a54b48" p-id="6887"></path><path d="M727.1 850.9m-60 0a60 60 0 1 0 120 0 60 60 0 1 0-120 0Z" fill="#a54b48" p-id="6888"></path><path d="M738.3 844.3m-60 0a60 60 0 1 0 120 0 60 60 0 1 0-120 0Z" fill="#a54b48" p-id="6889"></path><path d="M749.4 837.4m-60 0a60 60 0 1 0 120 0 60 60 0 1 0-120 0Z" fill="#a54b48" p-id="6890"></path><path d="M760.2 830.1m-60 0a60 60 0 1 0 120 0 60 60 0 1 0-120 0Z" fill="#a54b48" p-id="6891"></path><path d="M770.8 822.5m-60 0a60 60 0 1 0 120 0 60 60 0 1 0-120 0Z" fill="#a54b48" p-id="6892"></path><path d="M781.1 814.5m-60 0a60 60 0 1 0 120 0 60 60 0 1 0-120 0Z" fill="#a54b48" p-id="6893"></path><path d="M791.2 806.1m-60 0a60 60 0 1 0 120 0 60 60 0 1 0-120 0Z" fill="#a54b48" p-id="6894"></path><path d="M800.9 797.4m-60 0a60 60 0 1 0 120 0 60 60 0 1 0-120 0Z" fill="#a54b48" p-id="6895"></path><path d="M810.4 788.4m-60 0a60 60 0 1 0 120 0 60 60 0 1 0-120 0Z" fill="#a54b48" p-id="6896"></path><path d="M819.5 779.1m-60 0a60 60 0 1 0 120 0 60 60 0 1 0-120 0Z" fill="#a54b48" p-id="6897"></path><path d="M828.4 769.5m-60 0a60 60 0 1 0 120 0 60 60 0 1 0-120 0Z" fill="#a54b48" p-id="6898"></path><path d="M836.9 759.6m-60 0a60 60 0 1 0 120 0 60 60 0 1 0-120 0Z" fill="#a54b48" p-id="6899"></path><path d="M845 749.4m-60 0a60 60 0 1 0 120 0 60 60 0 1 0-120 0Z" fill="#a54b48" p-id="6900"></path><path d="M852.8 738.9m-60 0a60 60 0 1 0 120 0 60 60 0 1 0-120 0Z" fill="#a54b48" p-id="6901"></path><path d="M860.3 728.2m-60 0a60 60 0 1 0 120 0 60 60 0 1 0-120 0Z" fill="#a54b48" p-id="6902"></path><path d="M867.4 717.2m-60 0a60 60 0 1 0 120 0 60 60 0 1 0-120 0Z" fill="#a54b48" p-id="6903"></path><path d="M874.1 766c33 0 60-27 60-60s-27-60-60-60-60 27-60 60c0 33.1 27 60 60 60z" fill="#a54b48" p-id="6904"></path></svg>